<svg xmlns="http://www.w3.org/2000/svg"
     viewBox="0 283 5852 1017"
     width="691" height="120"
     role="img" aria-label="OpenGuard">
  <title>OpenGuard</title>
  <g fill="#ffffff">
    <path d="M228 321V302H456V321ZM152 359V340H532V359ZM114 397V378H228V397ZM456 397V378H570V397ZM494 435V416H570V435ZM114 435V416H190V435ZM76 473V454H152V473ZM532 473V454H608V473ZM76 511V492H152V511ZM532 511V492H608V511ZM570 549V530H646V549ZM38 549V530H114V549ZM570 587V568H646V587ZM38 587V568H114V587ZM570 625V606H646V625ZM38 625V606H114V625ZM570 663V644H646V663ZM38 663V644H114V663ZM38 701V682H114V701ZM570 701V682H646V701ZM570 739V720H646V739ZM38 739V720H114V739ZM38 777V758H114V777ZM570 777V758H646V777ZM532 815V796H608V815ZM76 815V796H152V815ZM76 853V834H152V853ZM532 853V834H608V853ZM494 891V872H570V891ZM114 891V872H190V891ZM456 929V910H570V929ZM114 929V910H228V929ZM152 967V948H532V967ZM228 1005V986H456V1005Z" />
    <path d="M760 321V302H1102V321ZM760 359V340H1178V359ZM760 397V378H836V397ZM1102 397V378H1216V397ZM1140 435V416H1216V435ZM760 435V416H836V435ZM1178 473V454H1254V473ZM760 473V454H836V473ZM760 511V492H836V511ZM1178 511V492H1254V511ZM1178 549V530H1254V549ZM760 549V530H836V549ZM1140 587V568H1216V587ZM760 587V568H836V587ZM760 625V606H836V625ZM1102 625V606H1216V625ZM760 663V644H1178V663ZM760 701V682H1102V701ZM760 739V720H836V739ZM760 777V758H836V777ZM760 815V796H836V815ZM760 853V834H836V853ZM760 891V872H836V891ZM760 929V910H836V929ZM760 967V948H836V967ZM760 1005V986H836V1005Z" />
    <path d="M1368 321V302H1824V321ZM1368 359V340H1824V359ZM1368 397V378H1444V397ZM1368 435V416H1444V435ZM1368 473V454H1444V473ZM1368 511V492H1444V511ZM1368 549V530H1444V549ZM1368 587V568H1444V587ZM1368 625V606H1824V625ZM1368 663V644H1824V663ZM1368 701V682H1444V701ZM1368 739V720H1444V739ZM1368 777V758H1444V777ZM1368 815V796H1444V815ZM1368 853V834H1444V853ZM1368 891V872H1444V891ZM1368 929V910H1444V929ZM1368 967V948H1824V967ZM1368 1005V986H1824V1005Z" />
    <path d="M1976 321V302H2090V321ZM2394 321V302H2470V321ZM1976 359V340H2128V359ZM2394 359V340H2470V359ZM2394 397V378H2470V397ZM1976 397V378H2128V397ZM2394 435V416H2470V435ZM2090 435V416H2166V435ZM1976 435V416H2052V435ZM2090 473V454H2166V473ZM2394 473V454H2470V473ZM1976 473V454H2052V473ZM2394 511V492H2470V511ZM2128 511V492H2204V511ZM1976 511V492H2052V511ZM2128 549V530H2204V549ZM2394 549V530H2470V549ZM1976 549V530H2052V549ZM1976 587V568H2052V587ZM2394 587V568H2470V587ZM2166 587V568H2242V587ZM2394 625V606H2470V625ZM1976 625V606H2052V625ZM2166 625V606H2242V625ZM2204 663V644H2280V663ZM1976 663V644H2052V663ZM2394 663V644H2470V663ZM2394 701V682H2470V701ZM1976 701V682H2052V701ZM2204 701V682H2280V701ZM1976 739V720H2052V739ZM2394 739V720H2470V739ZM2242 739V720H2318V739ZM1976 777V758H2052V777ZM2394 777V758H2470V777ZM2242 777V758H2318V777ZM2394 815V796H2470V815ZM2280 815V796H2356V815ZM1976 815V796H2052V815ZM2280 853V834H2356V853ZM2394 853V834H2470V853ZM1976 853V834H2052V853ZM2356 891V872H2470V891ZM1976 891V872H2052V891ZM2356 929V910H2470V929ZM1976 929V910H2052V929ZM2394 967V948H2470V967ZM1976 967V948H2052V967ZM2394 1005V986H2470V1005ZM1976 1005V986H2052V1005Z" />
    <path d="M2774 321V302H3040V321ZM2698 359V340H3116V359ZM2660 397V378H2774V397ZM3040 397V378H3154V397ZM3078 435V416H3154V435ZM2660 435V416H2736V435ZM2622 473V454H2698V473ZM3116 473V454H3192V473ZM2622 511V492H2698V511ZM3116 511V492H3192V511ZM2584 549V530H2660V549ZM2584 587V568H2660V587ZM2584 625V606H2660V625ZM2584 663V644H2660V663ZM2888 701V682H3192V701ZM2584 701V682H2660V701ZM2584 739V720H2660V739ZM2888 739V720H3192V739ZM2584 777V758H2660V777ZM3116 777V758H3192V777ZM2622 815V796H2698V815ZM3116 815V796H3192V815ZM3116 853V834H3192V853ZM2622 853V834H2698V853ZM2660 891V872H2736V891ZM3116 891V872H3192V891ZM3078 929V910H3192V929ZM2660 929V910H2774V929ZM2698 967V948H3078V967ZM3116 967V948H3192V967ZM2774 1005V986H3040V1005ZM3116 1005V986H3192V1005Z" />
    <path d="M3306 321V302H3382V321ZM3762 321V302H3838V321ZM3306 359V340H3382V359ZM3762 359V340H3838V359ZM3306 397V378H3382V397ZM3762 397V378H3838V397ZM3306 435V416H3382V435ZM3762 435V416H3838V435ZM3306 473V454H3382V473ZM3762 473V454H3838V473ZM3306 511V492H3382V511ZM3762 511V492H3838V511ZM3306 549V530H3382V549ZM3762 549V530H3838V549ZM3306 587V568H3382V587ZM3762 587V568H3838V587ZM3306 625V606H3382V625ZM3762 625V606H3838V625ZM3306 663V644H3382V663ZM3762 663V644H3838V663ZM3762 701V682H3838V701ZM3306 701V682H3382V701ZM3762 739V720H3838V739ZM3306 739V720H3382V739ZM3306 777V758H3382V777ZM3762 777V758H3838V777ZM3762 815V796H3838V815ZM3306 815V796H3382V815ZM3762 853V834H3838V853ZM3306 853V834H3382V853ZM3344 891V872H3420V891ZM3724 891V872H3800V891ZM3344 929V910H3458V929ZM3686 929V910H3800V929ZM3382 967V948H3762V967ZM3458 1005V986H3686V1005Z" />
    <path d="M4180 321V302H4256V321ZM4180 359V340H4256V359ZM4142 397V378H4294V397ZM4142 435V416H4294V435ZM4104 473V454H4180V473ZM4256 473V454H4332V473ZM4104 511V492H4180V511ZM4256 511V492H4332V511ZM4256 549V530H4332V549ZM4104 549V530H4180V549ZM4066 587V568H4142V587ZM4294 587V568H4370V587ZM4066 625V606H4142V625ZM4294 625V606H4370V625ZM4294 663V644H4370V663ZM4066 663V644H4142V663ZM4332 701V682H4408V701ZM4028 701V682H4104V701ZM4028 739V720H4408V739ZM4028 777V758H4408V777ZM4370 815V796H4446V815ZM3990 815V796H4066V815ZM4370 853V834H4446V853ZM3990 853V834H4066V853ZM4370 891V872H4446V891ZM3990 891V872H4066V891ZM4408 929V910H4484V929ZM3952 929V910H4028V929ZM4408 967V948H4484V967ZM3952 967V948H4028V967ZM4408 1005V986H4484V1005ZM3952 1005V986H4028V1005Z" />
    <path d="M4598 321V302H4940V321ZM4598 359V340H5016V359ZM4940 397V378H5054V397ZM4598 397V378H4674V397ZM4978 435V416H5092V435ZM4598 435V416H4674V435ZM4598 473V454H4674V473ZM5016 473V454H5092V473ZM5016 511V492H5092V511ZM4598 511V492H4674V511ZM5016 549V530H5092V549ZM4598 549V530H4674V549ZM4598 587V568H4674V587ZM4978 587V568H5054V587ZM4940 625V606H5016V625ZM4598 625V606H4674V625ZM4598 663V644H4940V663ZM4598 701V682H5016V701ZM4940 739V720H5054V739ZM4598 739V720H4674V739ZM4978 777V758H5092V777ZM4598 777V758H4674V777ZM4598 815V796H4674V815ZM5016 815V796H5092V815ZM4598 853V834H4674V853ZM5016 853V834H5092V853ZM4598 891V872H4674V891ZM5016 891V872H5092V891ZM5016 929V910H5092V929ZM4598 929V910H4674V929ZM4598 967V948H4674V967ZM5016 967V948H5092V967ZM4598 1005V986H4674V1005ZM5016 1005V986H5092V1005Z" />
    <path d="M5244 321V302H5586V321ZM5244 359V340H5662V359ZM5586 397V378H5700V397ZM5244 397V378H5320V397ZM5244 435V416H5320V435ZM5624 435V416H5700V435ZM5244 473V454H5320V473ZM5662 473V454H5738V473ZM5662 511V492H5738V511ZM5244 511V492H5320V511ZM5244 549V530H5320V549ZM5700 549V530H5776V549ZM5244 587V568H5320V587ZM5700 587V568H5776V587ZM5244 625V606H5320V625ZM5700 625V606H5776V625ZM5700 663V644H5776V663ZM5244 663V644H5320V663ZM5700 701V682H5776V701ZM5244 701V682H5320V701ZM5244 739V720H5320V739ZM5700 739V720H5776V739ZM5244 777V758H5320V777ZM5700 777V758H5776V777ZM5662 815V796H5738V815ZM5244 815V796H5320V815ZM5662 853V834H5738V853ZM5244 853V834H5320V853ZM5624 891V872H5700V891ZM5244 891V872H5320V891ZM5244 929V910H5320V929ZM5586 929V910H5700V929ZM5244 967V948H5662V967ZM5244 1005V986H5586V1005Z" />
  </g>
</svg>