<svg xmlns="http://www.w3.org/2000/svg"
     viewBox="0 283 5852 1017"
     width="691" height="120"
     role="img" aria-label="OpenGuard">
  <title>OpenGuard</title>
  <g fill="#ffffff">
    <path d="M422 317V287H452V317ZM232 317V287H262V317ZM308 317V287H338V317ZM384 317V287H414V317ZM346 317V287H376V317ZM270 317V287H300V317ZM232 355V325H262V355ZM422 355V325H452V355ZM308 355V325H338V355ZM346 355V325H376V355ZM384 355V325H414V355ZM460 355V325H490V355ZM498 355V325H528V355ZM156 355V325H186V355ZM194 355V325H224V355ZM270 355V325H300V355ZM156 393V363H186V393ZM536 393V363H566V393ZM194 393V363H224V393ZM460 393V363H490V393ZM118 393V363H148V393ZM498 393V363H528V393ZM498 431V401H528V431ZM156 431V401H186V431ZM536 431V401H566V431ZM118 431V401H148V431ZM118 469V439H148V469ZM80 469V439H110V469ZM536 469V439H566V469ZM574 469V439H604V469ZM80 507V477H110V507ZM118 507V477H148V507ZM536 507V477H566V507ZM574 507V477H604V507ZM574 545V515H604V545ZM42 545V515H72V545ZM80 545V515H110V545ZM612 545V515H642V545ZM574 583V553H604V583ZM42 583V553H72V583ZM80 583V553H110V583ZM612 583V553H642V583ZM574 621V591H604V621ZM42 621V591H72V621ZM612 621V591H642V621ZM80 621V591H110V621ZM574 659V629H604V659ZM42 659V629H72V659ZM612 659V629H642V659ZM80 659V629H110V659ZM80 697V667H110V697ZM42 697V667H72V697ZM574 697V667H604V697ZM612 697V667H642V697ZM574 735V705H604V735ZM612 735V705H642V735ZM42 735V705H72V735ZM80 735V705H110V735ZM42 773V743H72V773ZM80 773V743H110V773ZM612 773V743H642V773ZM574 773V743H604V773ZM536 811V781H566V811ZM574 811V781H604V811ZM118 811V781H148V811ZM80 811V781H110V811ZM118 849V819H148V849ZM80 849V819H110V849ZM536 849V819H566V849ZM574 849V819H604V849ZM498 887V857H528V887ZM536 887V857H566V887ZM156 887V857H186V887ZM118 887V857H148V887ZM536 925V895H566V925ZM460 925V895H490V925ZM498 925V895H528V925ZM194 925V895H224V925ZM118 925V895H148V925ZM156 925V895H186V925ZM422 963V933H452V963ZM384 963V933H414V963ZM308 963V933H338V963ZM156 963V933H186V963ZM270 963V933H300V963ZM460 963V933H490V963ZM346 963V933H376V963ZM498 963V933H528V963ZM194 963V933H224V963ZM232 963V933H262V963ZM308 1001V971H338V1001ZM384 1001V971H414V1001ZM346 1001V971H376V1001ZM232 1001V971H262V1001ZM422 1001V971H452V1001ZM270 1001V971H300V1001Z" />
    <path d="M764 317V287H794V317ZM802 317V287H832V317ZM840 317V287H870V317ZM878 317V287H908V317ZM916 317V287H946V317ZM954 317V287H984V317ZM992 317V287H1022V317ZM1030 317V287H1060V317ZM1068 317V287H1098V317ZM1030 355V325H1060V355ZM992 355V325H1022V355ZM1068 355V325H1098V355ZM954 355V325H984V355ZM1106 355V325H1136V355ZM1144 355V325H1174V355ZM916 355V325H946V355ZM878 355V325H908V355ZM840 355V325H870V355ZM802 355V325H832V355ZM764 355V325H794V355ZM802 393V363H832V393ZM1106 393V363H1136V393ZM1144 393V363H1174V393ZM1182 393V363H1212V393ZM764 393V363H794V393ZM1182 431V401H1212V431ZM1144 431V401H1174V431ZM764 431V401H794V431ZM802 431V401H832V431ZM1182 469V439H1212V469ZM764 469V439H794V469ZM802 469V439H832V469ZM1220 469V439H1250V469ZM764 507V477H794V507ZM1182 507V477H1212V507ZM802 507V477H832V507ZM1220 507V477H1250V507ZM1220 545V515H1250V545ZM764 545V515H794V545ZM802 545V515H832V545ZM1182 545V515H1212V545ZM1182 583V553H1212V583ZM1144 583V553H1174V583ZM764 583V553H794V583ZM802 583V553H832V583ZM802 621V591H832V621ZM764 621V591H794V621ZM1144 621V591H1174V621ZM1182 621V591H1212V621ZM1106 621V591H1136V621ZM764 659V629H794V659ZM1030 659V629H1060V659ZM1068 659V629H1098V659ZM1106 659V629H1136V659ZM1144 659V629H1174V659ZM954 659V629H984V659ZM992 659V629H1022V659ZM802 659V629H832V659ZM916 659V629H946V659ZM878 659V629H908V659ZM840 659V629H870V659ZM1068 697V667H1098V697ZM992 697V667H1022V697ZM1030 697V667H1060V697ZM802 697V667H832V697ZM764 697V667H794V697ZM954 697V667H984V697ZM916 697V667H946V697ZM878 697V667H908V697ZM840 697V667H870V697ZM764 735V705H794V735ZM802 735V705H832V735ZM764 773V743H794V773ZM802 773V743H832V773ZM764 811V781H794V811ZM802 811V781H832V811ZM764 849V819H794V849ZM802 849V819H832V849ZM764 887V857H794V887ZM802 887V857H832V887ZM802 925V895H832V925ZM764 925V895H794V925ZM802 963V933H832V963ZM764 963V933H794V963ZM802 1001V971H832V1001ZM764 1001V971H794V1001Z" />
    <path d="M1790 317V287H1820V317ZM1372 317V287H1402V317ZM1410 317V287H1440V317ZM1752 317V287H1782V317ZM1448 317V287H1478V317ZM1486 317V287H1516V317ZM1524 317V287H1554V317ZM1562 317V287H1592V317ZM1600 317V287H1630V317ZM1638 317V287H1668V317ZM1676 317V287H1706V317ZM1714 317V287H1744V317ZM1372 355V325H1402V355ZM1714 355V325H1744V355ZM1752 355V325H1782V355ZM1676 355V325H1706V355ZM1638 355V325H1668V355ZM1600 355V325H1630V355ZM1410 355V325H1440V355ZM1790 355V325H1820V355ZM1448 355V325H1478V355ZM1486 355V325H1516V355ZM1524 355V325H1554V355ZM1562 355V325H1592V355ZM1372 393V363H1402V393ZM1410 393V363H1440V393ZM1372 431V401H1402V431ZM1410 431V401H1440V431ZM1410 469V439H1440V469ZM1372 469V439H1402V469ZM1410 507V477H1440V507ZM1372 507V477H1402V507ZM1410 545V515H1440V545ZM1372 545V515H1402V545ZM1410 583V553H1440V583ZM1372 583V553H1402V583ZM1638 621V591H1668V621ZM1676 621V591H1706V621ZM1714 621V591H1744V621ZM1752 621V591H1782V621ZM1562 621V591H1592V621ZM1524 621V591H1554V621ZM1486 621V591H1516V621ZM1448 621V591H1478V621ZM1790 621V591H1820V621ZM1600 621V591H1630V621ZM1410 621V591H1440V621ZM1372 621V591H1402V621ZM1790 659V629H1820V659ZM1752 659V629H1782V659ZM1714 659V629H1744V659ZM1676 659V629H1706V659ZM1638 659V629H1668V659ZM1600 659V629H1630V659ZM1562 659V629H1592V659ZM1524 659V629H1554V659ZM1486 659V629H1516V659ZM1448 659V629H1478V659ZM1372 659V629H1402V659ZM1410 659V629H1440V659ZM1372 697V667H1402V697ZM1410 697V667H1440V697ZM1372 735V705H1402V735ZM1410 735V705H1440V735ZM1372 773V743H1402V773ZM1410 773V743H1440V773ZM1410 811V781H1440V811ZM1372 811V781H1402V811ZM1410 849V819H1440V849ZM1372 849V819H1402V849ZM1410 887V857H1440V887ZM1372 887V857H1402V887ZM1372 925V895H1402V925ZM1410 925V895H1440V925ZM1410 963V933H1440V963ZM1372 963V933H1402V963ZM1676 963V933H1706V963ZM1790 963V933H1820V963ZM1448 963V933H1478V963ZM1486 963V933H1516V963ZM1524 963V933H1554V963ZM1562 963V933H1592V963ZM1600 963V933H1630V963ZM1638 963V933H1668V963ZM1714 963V933H1744V963ZM1752 963V933H1782V963ZM1372 1001V971H1402V1001ZM1790 1001V971H1820V1001ZM1600 1001V971H1630V1001ZM1448 1001V971H1478V1001ZM1486 1001V971H1516V1001ZM1524 1001V971H1554V1001ZM1562 1001V971H1592V1001ZM1638 1001V971H1668V1001ZM1676 1001V971H1706V1001ZM1714 1001V971H1744V1001ZM1752 1001V971H1782V1001ZM1410 1001V971H1440V1001Z" />
    <path d="M2056 317V287H2086V317ZM2436 317V287H2466V317ZM2398 317V287H2428V317ZM2018 317V287H2048V317ZM1980 317V287H2010V317ZM2094 355V325H2124V355ZM2056 355V325H2086V355ZM2436 355V325H2466V355ZM2398 355V325H2428V355ZM2018 355V325H2048V355ZM1980 355V325H2010V355ZM2398 393V363H2428V393ZM2056 393V363H2086V393ZM2436 393V363H2466V393ZM2018 393V363H2048V393ZM1980 393V363H2010V393ZM2094 393V363H2124V393ZM2436 431V401H2466V431ZM2094 431V401H2124V431ZM2132 431V401H2162V431ZM2398 431V401H2428V431ZM1980 431V401H2010V431ZM2018 431V401H2048V431ZM2094 469V439H2124V469ZM2398 469V439H2428V469ZM2018 469V439H2048V469ZM2132 469V439H2162V469ZM1980 469V439H2010V469ZM2436 469V439H2466V469ZM2436 507V477H2466V507ZM2170 507V477H2200V507ZM2018 507V477H2048V507ZM2398 507V477H2428V507ZM1980 507V477H2010V507ZM2132 507V477H2162V507ZM2170 545V515H2200V545ZM2398 545V515H2428V545ZM2132 545V515H2162V545ZM1980 545V515H2010V545ZM2018 545V515H2048V545ZM2436 545V515H2466V545ZM1980 583V553H2010V583ZM2018 583V553H2048V583ZM2398 583V553H2428V583ZM2436 583V553H2466V583ZM2208 583V553H2238V583ZM2170 583V553H2200V583ZM2398 621V591H2428V621ZM1980 621V591H2010V621ZM2170 621V591H2200V621ZM2208 621V591H2238V621ZM2018 621V591H2048V621ZM2436 621V591H2466V621ZM2208 659V629H2238V659ZM2246 659V629H2276V659ZM2018 659V629H2048V659ZM1980 659V629H2010V659ZM2436 659V629H2466V659ZM2398 659V629H2428V659ZM2436 697V667H2466V697ZM2018 697V667H2048V697ZM2246 697V667H2276V697ZM2208 697V667H2238V697ZM2398 697V667H2428V697ZM1980 697V667H2010V697ZM1980 735V705H2010V735ZM2436 735V705H2466V735ZM2246 735V705H2276V735ZM2284 735V705H2314V735ZM2398 735V705H2428V735ZM2018 735V705H2048V735ZM1980 773V743H2010V773ZM2018 773V743H2048V773ZM2436 773V743H2466V773ZM2246 773V743H2276V773ZM2284 773V743H2314V773ZM2398 773V743H2428V773ZM2398 811V781H2428V811ZM2436 811V781H2466V811ZM2322 811V781H2352V811ZM2284 811V781H2314V811ZM1980 811V781H2010V811ZM2018 811V781H2048V811ZM2322 849V819H2352V849ZM2284 849V819H2314V849ZM2436 849V819H2466V849ZM2398 849V819H2428V849ZM2018 849V819H2048V849ZM1980 849V819H2010V849ZM2436 887V857H2466V887ZM2360 887V857H2390V887ZM2398 887V857H2428V887ZM1980 887V857H2010V887ZM2018 887V857H2048V887ZM2436 925V895H2466V925ZM1980 925V895H2010V925ZM2018 925V895H2048V925ZM2360 925V895H2390V925ZM2398 925V895H2428V925ZM2436 963V933H2466V963ZM2018 963V933H2048V963ZM2398 963V933H2428V963ZM1980 963V933H2010V963ZM2436 1001V971H2466V1001ZM1980 1001V971H2010V1001ZM2398 1001V971H2428V1001ZM2018 1001V971H2048V1001Z" />
    <path d="M2968 317V287H2998V317ZM2816 317V287H2846V317ZM2892 317V287H2922V317ZM2930 317V287H2960V317ZM2854 317V287H2884V317ZM2778 317V287H2808V317ZM3006 317V287H3036V317ZM3082 355V325H3112V355ZM2968 355V325H2998V355ZM2854 355V325H2884V355ZM3006 355V325H3036V355ZM2930 355V325H2960V355ZM2892 355V325H2922V355ZM3044 355V325H3074V355ZM2740 355V325H2770V355ZM2778 355V325H2808V355ZM2702 355V325H2732V355ZM2816 355V325H2846V355ZM2740 393V363H2770V393ZM2702 393V363H2732V393ZM3120 393V363H3150V393ZM2664 393V363H2694V393ZM3044 393V363H3074V393ZM3082 393V363H3112V393ZM3120 431V401H3150V431ZM2702 431V401H2732V431ZM2664 431V401H2694V431ZM3082 431V401H3112V431ZM2664 469V439H2694V469ZM2626 469V439H2656V469ZM3120 469V439H3150V469ZM3158 469V439H3188V469ZM2626 507V477H2656V507ZM3120 507V477H3150V507ZM2664 507V477H2694V507ZM3158 507V477H3188V507ZM2626 545V515H2656V545ZM2588 545V515H2618V545ZM2626 583V553H2656V583ZM2588 583V553H2618V583ZM2626 621V591H2656V621ZM2588 621V591H2618V621ZM2588 659V629H2618V659ZM2626 659V629H2656V659ZM3044 697V667H3074V697ZM3120 697V667H3150V697ZM2626 697V667H2656V697ZM3158 697V667H3188V697ZM3082 697V667H3112V697ZM2588 697V667H2618V697ZM3006 697V667H3036V697ZM2968 697V667H2998V697ZM2930 697V667H2960V697ZM2892 697V667H2922V697ZM2626 735V705H2656V735ZM3158 735V705H3188V735ZM3120 735V705H3150V735ZM2892 735V705H2922V735ZM2588 735V705H2618V735ZM2930 735V705H2960V735ZM2968 735V705H2998V735ZM3006 735V705H3036V735ZM3044 735V705H3074V735ZM3082 735V705H3112V735ZM2588 773V743H2618V773ZM3158 773V743H3188V773ZM3120 773V743H3150V773ZM2626 773V743H2656V773ZM2626 811V781H2656V811ZM3120 811V781H3150V811ZM2664 811V781H2694V811ZM3158 811V781H3188V811ZM3120 849V819H3150V849ZM2664 849V819H2694V849ZM2626 849V819H2656V849ZM3158 849V819H3188V849ZM2702 887V857H2732V887ZM2664 887V857H2694V887ZM3158 887V857H3188V887ZM3120 887V857H3150V887ZM3158 925V895H3188V925ZM2664 925V895H2694V925ZM2740 925V895H2770V925ZM3082 925V895H3112V925ZM3120 925V895H3150V925ZM2702 925V895H2732V925ZM2740 963V933H2770V963ZM2702 963V933H2732V963ZM2778 963V933H2808V963ZM2816 963V933H2846V963ZM2930 963V933H2960V963ZM3006 963V933H3036V963ZM2892 963V933H2922V963ZM3044 963V933H3074V963ZM2968 963V933H2998V963ZM3158 963V933H3188V963ZM2854 963V933H2884V963ZM3120 963V933H3150V963ZM3006 1001V971H3036V1001ZM3158 1001V971H3188V1001ZM3120 1001V971H3150V1001ZM2968 1001V971H2998V1001ZM2854 1001V971H2884V1001ZM2930 1001V971H2960V1001ZM2892 1001V971H2922V1001ZM2816 1001V971H2846V1001ZM2778 1001V971H2808V1001Z" />
    <path d="M3348 317V287H3378V317ZM3766 317V287H3796V317ZM3310 317V287H3340V317ZM3804 317V287H3834V317ZM3348 355V325H3378V355ZM3766 355V325H3796V355ZM3310 355V325H3340V355ZM3804 355V325H3834V355ZM3310 393V363H3340V393ZM3766 393V363H3796V393ZM3348 393V363H3378V393ZM3804 393V363H3834V393ZM3310 431V401H3340V431ZM3804 431V401H3834V431ZM3348 431V401H3378V431ZM3766 431V401H3796V431ZM3348 469V439H3378V469ZM3310 469V439H3340V469ZM3804 469V439H3834V469ZM3766 469V439H3796V469ZM3348 507V477H3378V507ZM3804 507V477H3834V507ZM3310 507V477H3340V507ZM3766 507V477H3796V507ZM3310 545V515H3340V545ZM3348 545V515H3378V545ZM3804 545V515H3834V545ZM3766 545V515H3796V545ZM3348 583V553H3378V583ZM3766 583V553H3796V583ZM3310 583V553H3340V583ZM3804 583V553H3834V583ZM3310 621V591H3340V621ZM3804 621V591H3834V621ZM3766 621V591H3796V621ZM3348 621V591H3378V621ZM3310 659V629H3340V659ZM3804 659V629H3834V659ZM3766 659V629H3796V659ZM3348 659V629H3378V659ZM3766 697V667H3796V697ZM3310 697V667H3340V697ZM3804 697V667H3834V697ZM3348 697V667H3378V697ZM3804 735V705H3834V735ZM3766 735V705H3796V735ZM3310 735V705H3340V735ZM3348 735V705H3378V735ZM3348 773V743H3378V773ZM3766 773V743H3796V773ZM3804 773V743H3834V773ZM3310 773V743H3340V773ZM3804 811V781H3834V811ZM3766 811V781H3796V811ZM3348 811V781H3378V811ZM3310 811V781H3340V811ZM3766 849V819H3796V849ZM3804 849V819H3834V849ZM3310 849V819H3340V849ZM3348 849V819H3378V849ZM3386 887V857H3416V887ZM3728 887V857H3758V887ZM3348 887V857H3378V887ZM3766 887V857H3796V887ZM3348 925V895H3378V925ZM3386 925V895H3416V925ZM3424 925V895H3454V925ZM3766 925V895H3796V925ZM3690 925V895H3720V925ZM3728 925V895H3758V925ZM3538 963V933H3568V963ZM3690 963V933H3720V963ZM3500 963V933H3530V963ZM3462 963V933H3492V963ZM3424 963V933H3454V963ZM3386 963V933H3416V963ZM3576 963V933H3606V963ZM3614 963V933H3644V963ZM3652 963V933H3682V963ZM3728 963V933H3758V963ZM3652 1001V971H3682V1001ZM3614 1001V971H3644V1001ZM3576 1001V971H3606V1001ZM3538 1001V971H3568V1001ZM3500 1001V971H3530V1001ZM3462 1001V971H3492V1001Z" />
    <path d="M4222 317V287H4252V317ZM4184 317V287H4214V317ZM4184 355V325H4214V355ZM4222 355V325H4252V355ZM4184 393V363H4214V393ZM4146 393V363H4176V393ZM4260 393V363H4290V393ZM4222 393V363H4252V393ZM4260 431V401H4290V431ZM4222 431V401H4252V431ZM4184 431V401H4214V431ZM4146 431V401H4176V431ZM4146 469V439H4176V469ZM4108 469V439H4138V469ZM4260 469V439H4290V469ZM4298 469V439H4328V469ZM4146 507V477H4176V507ZM4298 507V477H4328V507ZM4108 507V477H4138V507ZM4260 507V477H4290V507ZM4298 545V515H4328V545ZM4108 545V515H4138V545ZM4146 545V515H4176V545ZM4260 545V515H4290V545ZM4108 583V553H4138V583ZM4070 583V553H4100V583ZM4298 583V553H4328V583ZM4336 583V553H4366V583ZM4108 621V591H4138V621ZM4336 621V591H4366V621ZM4070 621V591H4100V621ZM4298 621V591H4328V621ZM4336 659V629H4366V659ZM4298 659V629H4328V659ZM4070 659V629H4100V659ZM4108 659V629H4138V659ZM4336 697V667H4366V697ZM4070 697V667H4100V697ZM4032 697V667H4062V697ZM4374 697V667H4404V697ZM4298 735V705H4328V735ZM4260 735V705H4290V735ZM4222 735V705H4252V735ZM4374 735V705H4404V735ZM4184 735V705H4214V735ZM4146 735V705H4176V735ZM4108 735V705H4138V735ZM4032 735V705H4062V735ZM4070 735V705H4100V735ZM4336 735V705H4366V735ZM4146 773V743H4176V773ZM4032 773V743H4062V773ZM4070 773V743H4100V773ZM4108 773V743H4138V773ZM4260 773V743H4290V773ZM4298 773V743H4328V773ZM4222 773V743H4252V773ZM4374 773V743H4404V773ZM4336 773V743H4366V773ZM4184 773V743H4214V773ZM4374 811V781H4404V811ZM4032 811V781H4062V811ZM4412 811V781H4442V811ZM3994 811V781H4024V811ZM4412 849V819H4442V849ZM4032 849V819H4062V849ZM4374 849V819H4404V849ZM3994 849V819H4024V849ZM4412 887V857H4442V887ZM3994 887V857H4024V887ZM4032 887V857H4062V887ZM4374 887V857H4404V887ZM4450 925V895H4480V925ZM3994 925V895H4024V925ZM4412 925V895H4442V925ZM3956 925V895H3986V925ZM4450 963V933H4480V963ZM4412 963V933H4442V963ZM3994 963V933H4024V963ZM3956 963V933H3986V963ZM4450 1001V971H4480V1001ZM3956 1001V971H3986V1001ZM4412 1001V971H4442V1001ZM3994 1001V971H4024V1001Z" />
    <path d="M4678 317V287H4708V317ZM4716 317V287H4746V317ZM4792 317V287H4822V317ZM4602 317V287H4632V317ZM4640 317V287H4670V317ZM4906 317V287H4936V317ZM4754 317V287H4784V317ZM4830 317V287H4860V317ZM4868 317V287H4898V317ZM4602 355V325H4632V355ZM4944 355V325H4974V355ZM4982 355V325H5012V355ZM4678 355V325H4708V355ZM4716 355V325H4746V355ZM4754 355V325H4784V355ZM4640 355V325H4670V355ZM4868 355V325H4898V355ZM4906 355V325H4936V355ZM4792 355V325H4822V355ZM4830 355V325H4860V355ZM5020 393V363H5050V393ZM4640 393V363H4670V393ZM4944 393V363H4974V393ZM4982 393V363H5012V393ZM4602 393V363H4632V393ZM4982 431V401H5012V431ZM5020 431V401H5050V431ZM4602 431V401H4632V431ZM5058 431V401H5088V431ZM4640 431V401H4670V431ZM4602 469V439H4632V469ZM5058 469V439H5088V469ZM4640 469V439H4670V469ZM5020 469V439H5050V469ZM5058 507V477H5088V507ZM5020 507V477H5050V507ZM4602 507V477H4632V507ZM4640 507V477H4670V507ZM5020 545V515H5050V545ZM5058 545V515H5088V545ZM4602 545V515H4632V545ZM4640 545V515H4670V545ZM4640 583V553H4670V583ZM5020 583V553H5050V583ZM4982 583V553H5012V583ZM4602 583V553H4632V583ZM4944 621V591H4974V621ZM4640 621V591H4670V621ZM4602 621V591H4632V621ZM4982 621V591H5012V621ZM4906 659V629H4936V659ZM4868 659V629H4898V659ZM4716 659V629H4746V659ZM4830 659V629H4860V659ZM4792 659V629H4822V659ZM4754 659V629H4784V659ZM4678 659V629H4708V659ZM4602 659V629H4632V659ZM4640 659V629H4670V659ZM4868 697V667H4898V697ZM4906 697V667H4936V697ZM4944 697V667H4974V697ZM4982 697V667H5012V697ZM4792 697V667H4822V697ZM4602 697V667H4632V697ZM4640 697V667H4670V697ZM4678 697V667H4708V697ZM4716 697V667H4746V697ZM4830 697V667H4860V697ZM4754 697V667H4784V697ZM4944 735V705H4974V735ZM5020 735V705H5050V735ZM4602 735V705H4632V735ZM4640 735V705H4670V735ZM4982 735V705H5012V735ZM5020 773V743H5050V773ZM4602 773V743H4632V773ZM4982 773V743H5012V773ZM5058 773V743H5088V773ZM4640 773V743H4670V773ZM4640 811V781H4670V811ZM5058 811V781H5088V811ZM5020 811V781H5050V811ZM4602 811V781H4632V811ZM4640 849V819H4670V849ZM5058 849V819H5088V849ZM5020 849V819H5050V849ZM4602 849V819H4632V849ZM4640 887V857H4670V887ZM5058 887V857H5088V887ZM5020 887V857H5050V887ZM4602 887V857H4632V887ZM5058 925V895H5088V925ZM4602 925V895H4632V925ZM5020 925V895H5050V925ZM4640 925V895H4670V925ZM4602 963V933H4632V963ZM5020 963V933H5050V963ZM4640 963V933H4670V963ZM5058 963V933H5088V963ZM4602 1001V971H4632V1001ZM5058 1001V971H5088V1001ZM4640 1001V971H4670V1001ZM5020 1001V971H5050V1001Z" />
    <path d="M5400 317V287H5430V317ZM5438 317V287H5468V317ZM5552 317V287H5582V317ZM5362 317V287H5392V317ZM5324 317V287H5354V317ZM5286 317V287H5316V317ZM5476 317V287H5506V317ZM5248 317V287H5278V317ZM5514 317V287H5544V317ZM5438 355V325H5468V355ZM5400 355V325H5430V355ZM5552 355V325H5582V355ZM5362 355V325H5392V355ZM5628 355V325H5658V355ZM5324 355V325H5354V355ZM5514 355V325H5544V355ZM5476 355V325H5506V355ZM5590 355V325H5620V355ZM5286 355V325H5316V355ZM5248 355V325H5278V355ZM5628 393V363H5658V393ZM5666 393V363H5696V393ZM5248 393V363H5278V393ZM5590 393V363H5620V393ZM5286 393V363H5316V393ZM5248 431V401H5278V431ZM5628 431V401H5658V431ZM5666 431V401H5696V431ZM5286 431V401H5316V431ZM5286 469V439H5316V469ZM5704 469V439H5734V469ZM5666 469V439H5696V469ZM5248 469V439H5278V469ZM5704 507V477H5734V507ZM5666 507V477H5696V507ZM5286 507V477H5316V507ZM5248 507V477H5278V507ZM5286 545V515H5316V545ZM5248 545V515H5278V545ZM5704 545V515H5734V545ZM5742 545V515H5772V545ZM5248 583V553H5278V583ZM5742 583V553H5772V583ZM5286 583V553H5316V583ZM5704 583V553H5734V583ZM5248 621V591H5278V621ZM5742 621V591H5772V621ZM5286 621V591H5316V621ZM5704 621V591H5734V621ZM5742 659V629H5772V659ZM5248 659V629H5278V659ZM5286 659V629H5316V659ZM5704 659V629H5734V659ZM5704 697V667H5734V697ZM5248 697V667H5278V697ZM5742 697V667H5772V697ZM5286 697V667H5316V697ZM5286 735V705H5316V735ZM5704 735V705H5734V735ZM5248 735V705H5278V735ZM5742 735V705H5772V735ZM5286 773V743H5316V773ZM5248 773V743H5278V773ZM5742 773V743H5772V773ZM5704 773V743H5734V773ZM5704 811V781H5734V811ZM5286 811V781H5316V811ZM5248 811V781H5278V811ZM5666 811V781H5696V811ZM5666 849V819H5696V849ZM5704 849V819H5734V849ZM5286 849V819H5316V849ZM5248 849V819H5278V849ZM5666 887V857H5696V887ZM5628 887V857H5658V887ZM5248 887V857H5278V887ZM5286 887V857H5316V887ZM5286 925V895H5316V925ZM5590 925V895H5620V925ZM5248 925V895H5278V925ZM5628 925V895H5658V925ZM5666 925V895H5696V925ZM5400 963V933H5430V963ZM5476 963V933H5506V963ZM5438 963V933H5468V963ZM5514 963V933H5544V963ZM5552 963V933H5582V963ZM5628 963V933H5658V963ZM5362 963V933H5392V963ZM5590 963V933H5620V963ZM5324 963V933H5354V963ZM5286 963V933H5316V963ZM5248 963V933H5278V963ZM5362 1001V971H5392V1001ZM5400 1001V971H5430V1001ZM5552 1001V971H5582V1001ZM5324 1001V971H5354V1001ZM5286 1001V971H5316V1001ZM5438 1001V971H5468V1001ZM5248 1001V971H5278V1001ZM5514 1001V971H5544V1001ZM5476 1001V971H5506V1001Z" />
  </g>
</svg>